PathFileType	4	(X/Y/Z)	s02c0103.trc
DataRate	CameraRate	NumFrames	NumMarkers	Units	OrigDataRate	OrigDataStartFrame	OrigNumFrames
200	200	4	50	mm	200	1250	2000
Frame#	Time	racr			lacr			c7			jug			rlel			rdr			llel			ldr			s2			lic			ric			lasi			rasi			rpsi			lpsi			rgt			lgt			rth1			rth2			rth3			rth4			rlfc			rmfc			rsh1			rsh2			rsh3			rsh4			rlmal			rmmal			rtoe			rmt5			rmt1			lth1			lth2			lth4			lth3			llfc			lmfc			lsh1			lsh2			lsh3			lsh4			llmal			lmmal			lcal			ltoe			lmt5			SBIKE			LBIKE			RBIKE			
		X1	Y1	Z1	X2	Y2	Z2	X3	Y3	Z3	X4	Y4	Z4	X5	Y5	Z5	X6	Y6	Z6	X7	Y7	Z7	X8	Y8	Z8	X9	Y9	Z9	X10	Y10	Z10	X11	Y11	Z11	X12	Y12	Z12	X13	Y13	Z13	X14	Y14	Z14	X15	Y15	Z15	X16	Y16	Z16	X17	Y17	Z17	X18	Y18	Z18	X19	Y19	Z19	X20	Y20	Z20	X21	Y21	Z21	X22	Y22	Z22	X23	Y23	Z23	X24	Y24	Z24	X25	Y25	Z25	X26	Y26	Z26	X27	Y27	Z27	X28	Y28	Z28	X29	Y29	Z29	X30	Y30	Z30	X31	Y31	Z31	X32	Y32	Z32	X33	Y33	Z33	X34	Y34	Z34	X35	Y35	Z35	X36	Y36	Z36	X37	Y37	Z37	X38	Y38	Z38	X39	Y39	Z39	X40	Y40	Z40	X41	Y41	Z41	X42	Y42	Z42	X43	Y43	Z43	X44	Y44	Z44	X45	Y45	Z45	X46	Y46	Z46	X47	Y47	Z47	X48	Y48	Z48	X49	Y49	Z49	X50	Y50	Z50	
1250	6.2500	519.073016	1261.538672	-143.430957	556.212612	1249.959964	-462.950608	523.767076	1290.878797	-308.716413	461.268065	1163.726572	-305.222294	564.554952	1004.925433	-55.902907	707.974731	849.406063	-126.165814	545.651595	999.926559	-606.122370	702.601848	847.379705	-525.599718	13.566124	1156.737346	-259.678338	145.018151	1105.612718	-483.423389	118.193916	1138.595662	-195.598741	184.314050	1072.926064	-448.535215	167.484911	1118.921353	-230.109569	18.230980	1161.402230	-313.804873	34.374826	1162.269376	-400.780688	98.979188	1078.657087	-149.105266	91.836324	1008.940454	-504.574655	183.574398	1071.228846	-145.528898	271.664616	1074.436128	-147.722691	347.196522	1045.565484	-118.261594	279.715133	1096.663142	-177.947327	482.229310	981.012093	-142.791271	483.177702	954.871587	-257.718610	461.954011	873.185558	-129.707490	433.413845	790.451929	-145.661745	371.611313	730.463717	-142.739439	447.473807	784.682472	-183.051448	294.049274	628.789560	-148.291377	310.524557	646.196981	-228.251239	448.127911	463.124438	-197.430043	350.064104	508.348256	-135.433954	376.361591	504.474838	-242.799500	181.769507	898.675399	-523.791998	238.493895	832.224958	-521.045472	268.744851	846.989219	-505.518424	252.403933	744.148790	-517.326968	296.998953	657.338270	-490.297364	295.438930	627.390017	-389.545347	274.566146	559.026961	-514.252081	278.705522	473.903914	-500.973062	236.484361	393.394731	-504.005901	296.708592	472.145860	-464.095357	204.396881	293.715410	-492.058176	216.745950	289.306033	-415.306763	130.694157	278.732978	-454.262844	370.530195	117.818536	-436.603193	272.321435	151.307697	-506.151345	-129.199111	869.501056	-314.691373	32.694683	82.152197	-515.214949	32.654879	82.191273	-115.501436	
1251	6.2550	518.789284	1261.497605	-142.779886	557.236341	1248.724543	-461.630688	524.091054	1289.886791	-307.828957	462.187879	1162.459200	-303.912752	561.942696	1004.547202	-55.287441	707.168393	850.411286	-125.784356	546.212329	999.816774	-606.364986	702.463851	847.059856	-525.945047	13.382955	1156.831410	-260.187528	144.919293	1105.945444	-484.070712	118.048989	1140.351514	-196.130715	184.009913	1073.118675	-449.138162	166.942009	1120.343543	-231.093889	17.690618	1162.752199	-314.700244	33.920778	1163.304585	-401.585345	98.470518	1080.560329	-149.896943	91.709240	1009.174377	-505.052704	183.342369	1071.741267	-146.133423	271.402434	1074.042158	-148.553078	346.694084	1044.001992	-118.962193	279.644562	1096.612086	-178.426143	479.773931	978.611589	-144.411639	481.002903	952.844517	-258.707684	462.799153	871.322949	-130.790648	435.687308	788.090515	-146.293629	375.066097	727.008001	-142.868363	449.711386	782.543275	-183.733561	298.843905	623.983044	-147.724991	314.733870	641.706520	-227.676063	458.420745	464.885187	-197.562125	358.706889	506.340947	-135.086243	384.375178	503.638985	-242.111850	182.318368	899.453327	-523.802010	239.646570	833.551484	-521.116837	269.785179	848.600715	-505.659933	254.332959	745.595523	-517.115386	299.632924	659.017608	-489.994979	298.189345	629.317091	-388.977998	275.600627	561.177112	-513.797276	277.367965	476.010674	-500.454747	232.935671	396.656133	-503.626393	295.154635	473.747711	-463.443774	197.836930	297.914094	-491.920273	210.202759	293.146746	-415.088390	123.711762	284.450335	-453.884273	360.005972	118.680268	-436.647884	262.383321	153.958168	-505.969091	-129.245245	869.500171	-314.617989	32.675322	82.200389	-515.210806	32.648160	82.213878	-115.469147	
1252	6.2600	518.428113	1261.216338	-142.180739	558.190621	1247.224321	-460.398064	524.400796	1288.761601	-306.844351	462.715428	1161.242489	-302.602873	559.548972	1004.104118	-54.522055	706.307673	851.304391	-125.199858	546.660991	999.438871	-606.550687	702.409121	846.696990	-526.114142	13.195500	1156.910187	-260.699996	144.710795	1106.275355	-484.690895	117.821326	1141.872421	-196.797862	183.536232	1073.258490	-449.664238	166.831963	1122.457931	-231.903612	17.132347	1164.276182	-315.630215	33.604885	1164.474967	-402.385403	98.228066	1082.194226	-150.681305	91.568307	1009.422314	-505.575495	183.170238	1071.884298	-146.962193	271.241948	1073.083946	-149.568819	346.128746	1042.329204	-120.198977	279.711273	1095.767562	-179.185691	479.557604	975.933173	-145.195633	478.608112	950.278979	-259.425979	463.373132	867.856438	-131.540734	437.676483	784.145158	-146.815905	378.043958	722.178555	-142.984698	451.469384	778.803707	-184.321167	303.379267	618.017633	-147.377660	318.385069	635.938776	-227.128993	468.360204	466.358866	-197.679114	366.974159	503.474332	-134.660817	392.776851	502.645537	-242.444915	183.203655	900.441306	-523.822602	241.215071	835.170578	-520.947461	271.187158	850.605783	-505.729549	256.871976	747.395532	-516.735520	302.787099	661.161232	-489.553671	301.606539	631.677236	-388.365608	277.270992	563.805027	-513.204952	276.439287	478.651239	-499.822167	229.834983	400.554530	-503.278100	293.997554	475.840364	-462.734214	191.428432	302.819394	-491.651582	203.975465	297.543944	-414.863361	116.989798	290.678166	-453.462938	349.545395	120.158208	-436.622887	252.573740	157.326458	-505.731117	-129.263121	869.508895	-314.527508	32.664361	82.247088	-515.198665	32.670436	82.209676	-115.435795	
1253	6.2650	518.069720	1260.606639	-141.742594	559.148941	1245.605961	-459.400118	524.566701	1287.473549	-306.141569	463.523359	1159.658492	-301.639924	556.980951	1003.663002	-53.482445	705.629247	851.916255	-124.823996	546.885887	998.692572	-606.630007	702.229036	846.225498	-526.120594	13.003728	1156.973189	-261.215584	144.375602	1106.583465	-485.417208	117.595137	1143.099104	-197.538890	183.065954	1073.328195	-450.125181	166.606266	1123.622647	-232.569650	14.626469	1165.365857	-315.887129	32.837833	1165.373990	-403.003285	98.208820	1083.544172	-151.509395	91.392534	1009.695744	-506.163425	183.165496	1071.691493	-147.779301	271.153695	1071.483111	-150.547915	345.600245	1039.975652	-121.377294	279.958928	1094.353811	-179.904877	478.794364	971.656344	-146.604361	477.284528	945.971616	-260.494151	463.647664	862.986000	-132.185467	439.181586	778.721549	-147.363913	380.615282	715.774387	-143.025886	452.833909	773.689419	-184.939682	307.742745	610.565052	-146.979884	321.690688	628.821100	-226.688667	477.744351	467.535527	-197.805525	374.587325	499.912764	-133.890118	400.684551	500.331170	-241.858378	184.253090	901.542778	-523.644313	243.116301	837.110373	-520.370132	272.935920	853.020372	-505.571445	260.003837	749.585074	-516.145297	306.937373	664.000279	-489.267611	305.462169	634.263794	-387.728423	279.395021	566.705034	-512.549910	275.748316	481.581448	-498.672125	227.111696	405.033116	-502.836701	293.186433	478.377082	-461.817952	185.420677	308.315334	-491.351272	197.839695	302.473205	-414.524324	110.519725	297.600789	-452.985906	339.228922	122.365708	-436.639094	242.942328	161.305136	-505.497561	-129.242710	869.512405	-314.440156	32.658343	82.304427	-515.207781	32.669118	82.226355	-115.421722	
